# xmcd
#
# Track frame offsets:
#	150
#	15347
#	31872
#	47447
#	64400
#	84057
#	98555
#	112725
#	129547
#	143940
#	157942
#	173980
#	188557
#	200775
#
# Disc length: 2863 seconds
# Revision: 2
# Processed by: cddbd v1.5.2PL0 Copyright (c) Steve Scherf et al.
# Submitted via: dBpowerAMP V12.0
#
DISCID=a60b2d0e
DTITLE=Various Artist - Spotlight On Hits (Country Vol. 11)
DYEAR=1993
DGENRE=Country
TTITLE0=Reba McEntire and Vince Gill - The Heart Won't Lie
TTITLE1=Trisha Yearwood - You Say You Will
TTITLE2=Joe Diffie - Honky Tonk Attitude
TTITLE3=Steve Wariner - Like A River To The Sea
TTITLE4=Mary-Chapin Carpenter - The Hard way
TTITLE5=Ricky Van Shelton - Just As I Am
TTITLE6=Lee Roy Parnell - Tender Moment
TTITLE7=Michelle Wright - The Change
TTITLE8=Suzy Bogguss - Heartache
TTITLE9=Mc Bride and The Ride - Love On The Loose, Heart On The Run
TTITLE10=Patty Loveless - Blame It On Your Heart
TTITLE11=Diamond Rio - Oh Me Oh My Sweet Baby
TTITLE12=George Jones - Wrong's What I Do Best
TTITLE13=Collin Raye - Somebody Else's Moon
EXTD=
EXTT0=
EXTT1=
EXTT2=
EXTT3=
EXTT4=
EXTT5=
EXTT6=
EXTT7=
EXTT8=
EXTT9=
EXTT10=
EXTT11=
EXTT12=
EXTT13=
PLAYORDER=
